<svg width="75" height="72" viewBox="0 0 75 72" fill="none" xmlns="http://www.w3.org/2000/svg">
<path d="M72.555 38.3154H25.2718C23.9218 38.3154 22.8262 37.2197 22.8262 35.8697C22.8262 34.5197 23.9218 33.4241 25.2718 33.4241H72.555C73.905 33.4241 75.0007 34.5197 75.0007 35.8697C75.0007 37.2197 73.905 38.3154 72.555 38.3154Z" fill="#C1B7CA"/>
<path d="M38.3165 51.3588C37.6902 51.3588 37.0644 51.1212 36.588 50.6417L23.5446 37.5984C22.5893 36.6424 22.5893 35.0936 23.5446 34.1383L36.588 21.0949C37.5433 20.1396 39.0921 20.1396 40.0481 21.0949C41.0034 22.0503 41.0034 23.5991 40.0481 24.5544L28.7327 35.8698L40.0481 47.1852C41.0034 48.1405 41.0034 49.6893 40.0481 50.6447C39.5686 51.1212 38.9423 51.3588 38.3165 51.3588Z" fill="#C1B7CA"/>
<path d="M35.8699 71.7398C16.0926 71.7398 0 55.6471 0 35.8699C0 16.0926 16.0926 0 35.8699 0C50.7099 0 63.8123 8.92821 69.2547 22.7483C69.7503 24.0034 69.1305 25.4221 67.8755 25.9207C66.6198 26.4103 65.2011 25.8001 64.7026 24.5384C60.0035 12.6033 48.6851 4.89132 35.8699 4.89132C18.7891 4.89132 4.89132 18.7897 4.89132 35.8699C4.89132 52.9501 18.7891 66.8485 35.8699 66.8485C48.6851 66.8485 60.0035 59.1365 64.7026 47.205C65.1981 45.9427 66.6168 45.3331 67.8755 45.8221C69.1305 46.3177 69.7503 47.7393 69.2547 48.995C63.8123 62.8116 50.7099 71.7398 35.8699 71.7398Z" fill="#C1B7CA"/>
</svg>
